<svg xmlns="http://www.w3.org/2000/svg" xmlns:xlink="http://www.w3.org/1999/xlink" viewBox="0 0 308.32 140.93"><defs><style>.cls-1,.cls-35{fill:none;}.cls-2,.cls-24,.cls-25,.cls-39,.cls-6{fill:#fff;}.cls-3,.cls-7{fill:#2564f7;}.cls-4{clip-path:url(#clip-path);}.cls-10,.cls-17,.cls-5{fill:gray;}.cls-6{opacity:0.2;}.cls-7{font-size:8.66px;font-family:YandexSansText-Bold, Yandex Sans Text;}.cls-24,.cls-39,.cls-7{font-weight:700;}.cls-8{letter-spacing:-0.05em;}.cls-9{letter-spacing:-0.07em;}.cls-10,.cls-24,.cls-25{font-size:2.89px;}.cls-10,.cls-17,.cls-25{font-family:Poppins-Regular, Poppins Regular;}.cls-11{letter-spacing:-0.01em;}.cls-12{letter-spacing:-0.01em;}.cls-13{letter-spacing:0em;}.cls-14{letter-spacing:-0.01em;}.cls-15{letter-spacing:0.01em;}.cls-16{letter-spacing:-0.01em;}.cls-17{font-size:4.33px;}.cls-18{letter-spacing:-0.01em;}.cls-19{letter-spacing:-0.01em;}.cls-20{letter-spacing:0em;}.cls-21{letter-spacing:-0.01em;}.cls-22{letter-spacing:0.01em;}.cls-23{letter-spacing:0em;}.cls-24,.cls-39{font-family:Poppins-Bold, Poppins Bold;}.cls-25{letter-spacing:0.12em;}.cls-26{letter-spacing:0.05em;}.cls-27{letter-spacing:0.1em;}.cls-28{letter-spacing:0.08em;}.cls-29{letter-spacing:0.1em;}.cls-30{letter-spacing:0.02em;}.cls-31{letter-spacing:0.09em;}.cls-32{letter-spacing:0.1em;}.cls-33{letter-spacing:0.1em;}.cls-34{letter-spacing:0.08em;}.cls-35{stroke:#fff;stroke-miterlimit:10;stroke-width:0.24px;}.cls-36{fill:#27ffac;}.cls-37{fill:#18379e;}.cls-38{fill:#27bbff;}.cls-39{font-size:4.59px;}.cls-40{fill:#ccc;}.cls-41{letter-spacing:0.01em;}.cls-42{letter-spacing:0em;}.cls-43{letter-spacing:-0.05em;}.cls-44{letter-spacing:0em;}.cls-45{letter-spacing:0.01em;}.cls-46{letter-spacing:-0.01em;}.cls-47{letter-spacing:0.02em;}.cls-48{letter-spacing:-0.01em;}.cls-49{letter-spacing:-0.01em;}.cls-50{letter-spacing:-0.05em;}.cls-51{letter-spacing:-0.01em;}.cls-52{letter-spacing:-0.01em;}.cls-53{letter-spacing:-0.02em;}</style><clipPath id="clip-path" transform="translate(0 4.72)"><rect class="cls-1" x="117.35" width="113.5" height="129.98"/></clipPath></defs><g id="Слой_2" data-name="Слой 2"><g id="OBJECTS"><rect class="cls-2" y="5.92" width="230.85" height="129.86"/><rect class="cls-3" y="113.65" width="230.85" height="20.92"/><g class="cls-4"><path class="cls-5" d="M308.32,136.21H108.62V-4.72h199.7Z" transform="translate(0 4.72)"/><rect class="cls-6" x="117.35" y="4.72" width="113.5" height="129.98"/></g><text class="cls-7" transform="translate(9.49 33.34)">ЯНДЕ<tspan class="cls-8" x="24.13" y="0">К</tspan><tspan x="29.42" y="0">С ПРЕЗЕН</tspan><tspan class="cls-9" x="70.06" y="0">Т</tspan><tspan x="74.69" y="0">АЦИИ</tspan></text><text class="cls-10" transform="translate(22.96 58)"><tspan class="cls-11">L</tspan><tspan x="1.32" y="0">o</tspan><tspan class="cls-12" x="2.91" y="0">r</tspan><tspan x="3.82" y="0">em ipsum dolor sit ame</tspan><tspan class="cls-13" x="32.01" y="0">t</tspan><tspan x="32.95" y="0">, </tspan><tspan class="cls-14" x="34.16" y="0">c</tspan><tspan x="35.44" y="0">onse</tspan><tspan class="cls-15" x="41.21" y="0">c</tspan><tspan class="cls-16" x="42.54" y="0">t</tspan><tspan x="43.48" y="0">etur </tspan><tspan x="0" y="4.33">adipiscing eli</tspan><tspan class="cls-13" x="15.75" y="4.33">t</tspan><tspan x="16.69" y="4.33">. </tspan></text><text class="cls-17" transform="translate(17.8 44.72)"><tspan class="cls-18">L</tspan><tspan x="1.98" y="0">o</tspan><tspan class="cls-19" x="4.36" y="0">r</tspan><tspan x="5.73" y="0">em ipsum dolor sit ame</tspan><tspan class="cls-20" x="48.02" y="0">t</tspan><tspan x="49.44" y="0">, </tspan><tspan class="cls-21" x="51.25" y="0">c</tspan><tspan x="53.17" y="0">onse</tspan><tspan class="cls-22" x="61.83" y="0">c</tspan><tspan class="cls-21" x="63.82" y="0">t</tspan><tspan x="65.23" y="0">etur </tspan><tspan x="0" y="5.19">adipiscing eli</tspan><tspan class="cls-23" x="23.63" y="5.19">t</tspan><tspan x="25.04" y="5.19">. </tspan></text><text class="cls-24" transform="translate(6.03 128.95)">02.</text><text class="cls-25" transform="translate(183.57 129.12)">WW<tspan class="cls-26" x="5.55" y="0">W</tspan><tspan class="cls-27" x="8.12" y="0">.</tspan><tspan class="cls-28" x="9.01" y="0">C</tspan><tspan class="cls-29" x="10.91" y="0">OM</tspan><tspan class="cls-30" x="15.8" y="0">P</tspan><tspan class="cls-29" x="17.38" y="0">A</tspan><tspan class="cls-31" x="19.43" y="0">NY</tspan><tspan class="cls-29" x="23.43" y="0">N</tspan><tspan class="cls-32" x="25.62" y="0">A</tspan><tspan class="cls-27" x="27.66" y="0">M</tspan><tspan class="cls-33" x="30.27" y="0">E</tspan><tspan class="cls-27" x="31.96" y="0">.</tspan><tspan class="cls-34" x="32.85" y="0">C</tspan><tspan class="cls-27" x="34.75" y="0">OM</tspan></text><line class="cls-35" x1="13.71" y1="128.2" x2="173.5" y2="128.2"/><path class="cls-3" d="M190.93,79.59,202.09,94a40.76,40.76,0,0,1-57.17-7.25l14.39-11.16A22.56,22.56,0,0,0,190.93,79.59Z" transform="translate(0 4.72)"/><path class="cls-36" d="M155,33.15l5.58,7.2a27.12,27.12,0,0,0-4.82,38l-7.2,5.58A36.2,36.2,0,0,1,155,33.15Z" transform="translate(0 4.72)"/><path class="cls-37" d="M208.15,37.74a39.24,39.24,0,0,1-7,55l-9.3-12A24.07,24.07,0,0,0,196.15,47Z" transform="translate(0 4.72)"/><path class="cls-38" d="M207,38.67l-9.6,7.44a25.61,25.61,0,0,0-35.88-4.56L154,32A37.72,37.72,0,0,1,207,38.67Z" transform="translate(0 4.72)"/><text class="cls-39" transform="translate(173.21 99.37)">04</text><text class="cls-39" transform="translate(206.12 72.83)">03</text><text class="cls-39" transform="translate(143.49 65.31)">01</text><text class="cls-39" transform="translate(178.44 37.88)">02</text><path class="cls-40" d="M19.72,52.54a1,1,0,1,1-1-1A1,1,0,0,1,19.72,52.54Z" transform="translate(0 4.72)"/><text class="cls-10" transform="translate(22.96 70.63)"><tspan class="cls-41">M</tspan><tspan x="2.34" y="0">au</tspan><tspan class="cls-42" x="5.32" y="0">r</tspan><tspan x="6.27" y="0">is </tspan><tspan class="cls-16" x="8.7" y="0">c</tspan><tspan x="9.98" y="0">onse</tspan><tspan class="cls-15" x="15.75" y="0">c</tspan><tspan class="cls-16" x="17.08" y="0">t</tspan><tspan x="18.02" y="0">etu</tspan><tspan class="cls-43" x="22.01" y="0">r</tspan><tspan x="22.8" y="0">, quam </tspan><tspan class="cls-44" x="31.63" y="0">a</tspan><tspan x="33.01" y="0">t sa</tspan><tspan class="cls-16" x="37.11" y="0">g</tspan><tspan x="38.71" y="0">ittis malesuada, </tspan><tspan class="cls-13" x="0" y="4.33">e</tspan><tspan x="1.44" y="4.33">x jus</tspan><tspan class="cls-16" x="6.82" y="4.33">t</tspan><tspan x="7.75" y="4.33">o lu</tspan><tspan class="cls-45" x="12.22" y="4.33">c</tspan><tspan x="13.55" y="4.33">tus a</tspan><tspan class="cls-12" x="19.24" y="4.33">r</tspan><tspan x="20.16" y="4.33">c</tspan><tspan class="cls-46" x="21.45" y="4.33">u</tspan><tspan x="23.02" y="4.33">.</tspan></text><path class="cls-40" d="M19.72,65.17a1,1,0,1,1-1-1A1,1,0,0,1,19.72,65.17Z" transform="translate(0 4.72)"/><text class="cls-10" transform="translate(22.96 83.25)">Nulla po<tspan class="cls-47" x="10.08" y="0">r</tspan><tspan x="11.09" y="0">ta, a</tspan><tspan class="cls-12" x="16.04" y="0">r</tspan><tspan x="16.95" y="0">cu id euismod di</tspan><tspan class="cls-45" x="36.74" y="0">c</tspan><tspan x="38.07" y="0">tum, nunc elit </tspan><tspan x="0" y="4.33">molestie o</tspan><tspan class="cls-12" x="12.53" y="4.33">r</tspan><tspan x="13.44" y="4.33">ci, eget molestie lacu</tspan><tspan class="cls-48" x="38.59" y="4.33">s</tspan><tspan x="39.7" y="4.33">.</tspan></text><path class="cls-40" d="M19.72,77.79a1,1,0,1,1-1-1A1,1,0,0,1,19.72,77.79Z" transform="translate(0 4.72)"/><text class="cls-10" transform="translate(22.96 95.88)"><tspan class="cls-49">P</tspan><tspan x="1.52" y="0">hasellus mau</tspan><tspan class="cls-42" x="17.19" y="0">r</tspan><tspan x="18.15" y="0">is </tspan><tspan class="cls-16" x="20.58" y="0">t</tspan><tspan x="21.51" y="0">o</tspan><tspan class="cls-47" x="23.1" y="0">r</tspan><tspan class="cls-14" x="24.11" y="0">t</tspan><tspan x="25.05" y="0">o</tspan><tspan class="cls-50" x="26.63" y="0">r</tspan><tspan x="27.42" y="0">, lobo</tspan><tspan class="cls-47" x="34.12" y="0">r</tspan><tspan x="35.13" y="0">tis sit amet </tspan><tspan class="cls-13" x="48.71" y="0">e</tspan><tspan x="50.15" y="0">x e</tspan><tspan class="cls-51" x="53.54" y="0">u</tspan><tspan x="55.11" y="0">, </tspan><tspan x="0" y="4.33">di</tspan><tspan class="cls-15" x="2.3" y="4.33">c</tspan><tspan x="3.63" y="4.33">tum </tspan><tspan class="cls-52" x="9.2" y="4.33">v</tspan><tspan x="10.55" y="4.33">enen</tspan><tspan class="cls-44" x="16.65" y="4.33">a</tspan><tspan x="18.03" y="4.33">tis libe</tspan><tspan class="cls-12" x="25.85" y="4.33">r</tspan><tspan class="cls-53" x="26.77" y="4.33">o</tspan><tspan x="28.28" y="4.33">. </tspan></text><path class="cls-40" d="M19.72,90.42a1,1,0,1,1-1-1A1,1,0,0,1,19.72,90.42Z" transform="translate(0 4.72)"/></g></g></svg>