<svg xmlns="http://www.w3.org/2000/svg" xmlns:xlink="http://www.w3.org/1999/xlink" viewBox="0 0 115.1 61.67"><defs><style>.cls-1{fill:none;}.cls-13,.cls-2,.cls-4{fill:#fff;}.cls-16,.cls-3{fill:#2564f7;}.cls-4{font-size:1.34px;font-family:Poppins-Regular, Poppins Regular;letter-spacing:0.12em;}.cls-5{letter-spacing:0.05em;}.cls-6{letter-spacing:0.1em;}.cls-7{letter-spacing:0.08em;}.cls-8{letter-spacing:0.02em;}.cls-9{letter-spacing:0.09em;}.cls-10{letter-spacing:0.1em;}.cls-11{letter-spacing:0.1em;}.cls-12{letter-spacing:0.08em;}.cls-13{font-size:2.33px;font-family:Poppins-Bold, Poppins Bold;letter-spacing:0.08em;}.cls-13,.cls-16{font-weight:700;}.cls-14{clip-path:url(#clip-path);}.cls-15{fill:gray;}.cls-16{font-size:7.18px;font-family:YandexSansText-Bold, Yandex Sans Text;}.cls-17{letter-spacing:-0.05em;}.cls-18{letter-spacing:-0.07em;}</style><clipPath id="clip-path" transform="translate(0 1.3)"><rect class="cls-1" x="55.61" y="4.63" width="46.89" height="51.16"/></clipPath></defs><g id="Слой_2" data-name="Слой 2"><g id="OBJECTS"><rect class="cls-2" y="1.3" width="107.31" height="60.36"/><rect class="cls-3" y="1.3" width="86.8" height="60.36"/><rect class="cls-2" x="5.53" y="6.75" width="1.35" height="5.31"/><polygon class="cls-2" points="10.4 12.06 9.13 12.06 9.13 8.97 10.4 7.79 10.4 12.06"/><polygon class="cls-2" points="10.4 7.53 9.13 8.74 9.13 6.75 10.4 6.75 10.4 7.53"/><polygon class="cls-2" points="8.96 9.12 7.15 6.91 7.15 9.56 8.96 11.86 8.96 9.12"/><text class="cls-4" transform="translate(30.17 57.84)">WW<tspan class="cls-5" x="2.58" y="0">W</tspan><tspan class="cls-6" x="3.78" y="0">.</tspan><tspan class="cls-7" x="4.19" y="0">C</tspan><tspan class="cls-6" x="5.07" y="0">OM</tspan><tspan class="cls-8" x="7.34" y="0">P</tspan><tspan class="cls-6" x="8.08" y="0">A</tspan><tspan class="cls-9" x="9.03" y="0">NY</tspan><tspan class="cls-6" x="10.89" y="0">NAM</tspan><tspan class="cls-10" x="14.07" y="0">E</tspan><tspan class="cls-11" x="14.86" y="0">.</tspan><tspan class="cls-12" x="15.27" y="0">C</tspan><tspan class="cls-11" x="16.15" y="0">OM</tspan></text><text class="cls-13" transform="translate(33.33 55.58)">+123 456 789</text><g class="cls-14"><path class="cls-15" d="M115.1,59h-71V-1.3h71Z" transform="translate(0 1.3)"/></g><rect class="cls-2" y="23.94" width="65" height="19.28"/><text class="cls-16" transform="translate(5.53 32.85)">ЯНДЕ<tspan class="cls-17" x="20.01" y="0">К</tspan><tspan x="24.4" y="0">С</tspan><tspan x="0" y="7.18">ПРЕЗЕН</tspan><tspan class="cls-18" x="27.65" y="7.18">Т</tspan><tspan x="31.49" y="7.18">АЦИИ</tspan></text></g></g></svg>