<svg xmlns="http://www.w3.org/2000/svg" xmlns:xlink="http://www.w3.org/1999/xlink" viewBox="0 0 590.96 316.63"><defs><style>.cls-1{fill:none;}.cls-14,.cls-2,.cls-4{fill:#fff;}.cls-17,.cls-3{fill:#2564f7;}.cls-4{font-size:6.89px;font-family:Poppins-Regular, Poppins Regular;letter-spacing:0.12em;}.cls-5{letter-spacing:0.04em;}.cls-6{letter-spacing:0.1em;}.cls-7{letter-spacing:0.08em;}.cls-8{letter-spacing:0.02em;}.cls-9{letter-spacing:0.1em;}.cls-10{letter-spacing:0.09em;}.cls-11{letter-spacing:0.1em;}.cls-12{letter-spacing:0.1em;}.cls-13{letter-spacing:0.08em;}.cls-14{font-size:11.96px;font-family:Poppins-Bold, Poppins Bold;letter-spacing:0.07em;}.cls-14,.cls-17{font-weight:700;}.cls-15{clip-path:url(#clip-path);}.cls-16{fill:gray;}.cls-17{font-size:36.87px;font-family:YandexSansText-Bold, Yandex Sans Text;}.cls-18{letter-spacing:-0.05em;}.cls-19{letter-spacing:-0.07em;}</style><clipPath id="clip-path" transform="translate(0 6.69)"><rect class="cls-1" x="285.55" y="23.77" width="240.78" height="262.69"/></clipPath></defs><g id="Слой_2" data-name="Слой 2"><g id="OBJECTS"><rect class="cls-2" y="6.69" width="551" height="309.94"/><rect class="cls-3" y="6.69" width="445.68" height="309.94"/><rect class="cls-2" x="28.41" y="34.63" width="6.94" height="27.28"/><polygon class="cls-2" points="53.38 61.91 46.91 61.91 46.91 46.08 53.38 40.02 53.38 61.91"/><polygon class="cls-2" points="53.38 38.68 46.91 44.85 46.91 34.63 53.38 34.63 53.38 38.68"/><polygon class="cls-2" points="45.98 46.8 36.73 35.47 36.73 49.09 45.98 60.91 45.98 46.8"/><text class="cls-4" transform="translate(154.9 297)">WW<tspan class="cls-5" x="13.25" y="0">W</tspan><tspan class="cls-6" x="19.39" y="0">.</tspan><tspan class="cls-7" x="21.5" y="0">C</tspan><tspan class="cls-6" x="26.04" y="0">OM</tspan><tspan class="cls-8" x="37.7" y="0">P</tspan><tspan class="cls-9" x="41.48" y="0">A</tspan><tspan class="cls-10" x="46.38" y="0">NY</tspan><tspan class="cls-9" x="55.92" y="0">N</tspan><tspan class="cls-11" x="61.14" y="0">A</tspan><tspan class="cls-9" x="66.02" y="0">M</tspan><tspan class="cls-12" x="72.24" y="0">E</tspan><tspan class="cls-9" x="76.29" y="0">.</tspan><tspan class="cls-13" x="78.41" y="0">C</tspan><tspan class="cls-6" x="82.95" y="0">OM</tspan></text><text class="cls-14" transform="translate(171.15 285.37)">+123 456 789</text><g class="cls-15"><path class="cls-16" d="M591,302.9H226.48V-6.69H591Z" transform="translate(0 6.69)"/></g><rect class="cls-2" y="122.92" width="333.76" height="99.01"/><text class="cls-17" transform="translate(28.41 168.66)">ЯНДЕ<tspan class="cls-18" x="102.76" y="0">К</tspan><tspan x="125.29" y="0">С</tspan><tspan x="0" y="36.87">ПРЕЗЕН</tspan><tspan class="cls-19" x="141.96" y="36.87">Т</tspan><tspan x="161.69" y="36.87">АЦИИ</tspan></text></g></g></svg>